<?xml version="1.0" encoding="UTF-8"?>
<svg version="1.1" xmlns="http://www.w3.org/2000/svg" width="200" height="200">
<path d="M0 0 C66 0 132 0 200 0 C200 66 200 132 200 200 C134 200 68 200 0 200 C0 134 0 68 0 0 Z " fill="#FEFEFD" transform="translate(0,0)"/>
<path d="M0 0 C17.39980415 0 32.11449129 5.59206041 44.7890625 17.75390625 C45.51867187 18.49511719 46.24828125 19.23632812 47 20 C47.64710937 20.64839844 48.29421875 21.29679687 48.9609375 21.96484375 C60.14648274 33.90748922 65 48.92316322 65 65 C43.55 65 22.1 65 0 65 C0 43.55 0 22.1 0 0 Z " fill="#13B782" transform="translate(35,100)"/>
<path d="M0 0 C9.80383723 5.59288055 15.00322062 12.75966186 18.5625 23.4375 C19.42977401 32.65050911 18.36289215 41.07912718 12.9140625 48.76171875 C11.21566258 50.76790731 9.45465436 52.61462361 7.5625 54.4375 C6.82 55.18 6.0775 55.9225 5.3125 56.6875 C-2.68108788 61.77432865 -11.04640843 63.63502174 -20.4375 62.4375 C-29.50515281 60.40300435 -37.15655148 54.57715101 -42.140625 46.76953125 C-46.53696104 38.21688901 -48.10174833 29.7523114 -45.6015625 20.265625 C-41.67569343 9.88446787 -35.61781376 3.96998439 -25.63671875 -0.65234375 C-17.26936877 -4.11520795 -8.17430878 -3.88073245 0 0 Z " fill="#7B3AEB" transform="translate(146.4375,102.5625)"/>
<path d="M0 0 C8.15517227 4.79716016 14.07734983 11.41463823 17.30859375 20.32421875 C19.78230557 29.89762324 17.34197373 37.86567297 13.375 46.5625 C9.14760947 53.44802245 2.39928381 58.74919999 -5.20703125 61.3671875 C-14.73306141 63.52553279 -22.80638437 62.6703985 -31.3046875 57.83203125 C-39.32389905 52.3812918 -44.33100928 46.05937968 -46.578125 36.5546875 C-48.27593883 26.27348152 -46.18739376 18.63106231 -41.125 9.6875 C-31.05137841 -3.05266848 -14.71592202 -6.51320342 0 0 Z " fill="#F9CC17" transform="translate(82,38)"/>
<path d="M0 0 C21.45 0 42.9 0 65 0 C65 21.45 65 42.9 65 65 C47.61505482 65 32.84305499 59.41797884 20.203125 47.2265625 C19.11257812 46.12441406 19.11257812 46.12441406 18 45 C17.37609375 44.40960938 16.7521875 43.81921875 16.109375 43.2109375 C4.97656767 31.82739126 0 15.55965966 0 0 Z " fill="#F2405E" transform="translate(100,35)"/>
<path d="M0 0 C21.45 0 42.9 0 65 0 C65 21.45 65 42.9 65 65 C54.875 65 54.875 65 50.9375 64 C50.18339844 63.814375 49.42929688 63.62875 48.65234375 63.4375 C48.10707031 63.293125 47.56179687 63.14875 47 63 C47 62.67 47 62.34 47 62 C48.52040718 61.94493495 50.04142704 61.90673625 51.5625 61.875 C52.83287109 61.84019531 52.83287109 61.84019531 54.12890625 61.8046875 C57 62 57 62 64 64 C63.67 43.54 63.34 23.08 63 2 C42.54 1.67 22.08 1.34 1 1 C1.66 4.3 2.32 7.6 3 11 C3.125 14.625 3.125 14.625 3 17 C1 13 1 13 0 0 Z " fill="#C9566A" transform="translate(100,35)"/>
<path d="M0 0 C0.66 0 1.32 0 2 0 C2 21.45 2 42.9 2 65 C1.01 64.67 0.02 64.34 -1 64 C-0.67 42.88 -0.34 21.76 0 0 Z " fill="#E2FEFE" transform="translate(33,100)"/>
<path d="M0 0 C0 0.66 0 1.32 0 2 C-3.46153846 5 -3.46153846 5 -6 5 C-6.33 5.99 -6.66 6.98 -7 8 C-9.0625 8.6875 -9.0625 8.6875 -11 9 C-10.9175 9.70125 -10.835 10.4025 -10.75 11.125 C-11 14 -11 14 -12.99609375 16.62890625 C-15.5517719 20.92822446 -15.49976128 23.93122276 -15.3125 28.8125 C-15.30283203 29.58787109 -15.29316406 30.36324219 -15.28320312 31.16210938 C-15.53551526 34.88647973 -15.53551526 34.88647973 -14 38 C-13.95936168 39.66617115 -13.957279 41.33388095 -14 43 C-17.95826898 39.04173102 -18.1615168 33.00020194 -18.375 27.625 C-18.21778992 19.5286811 -14.99596436 12.31842551 -10 6 C-3.67391304 0 -3.67391304 0 0 0 Z " fill="#EECF47" transform="translate(53,39)"/>
<path d="M0 0 C3.81102667 5.71654001 3.57354666 11.32455411 3 18 C1.38710403 24.78468195 -1.14322962 30.00831933 -6 35 C-6.66 34.34 -7.32 33.68 -8 33 C-7.34 33 -6.68 33 -6 33 C-6 31.35 -6 29.7 -6 28 C-5.34 28 -4.68 28 -4 28 C-3.67 27.34 -3.34 26.68 -3 26 C-2.34 26 -1.68 26 -1 26 C-0.22471521 22.57426063 0.11918778 19.42760755 0.09765625 15.91796875 C0.09443359 14.98662109 0.09121094 14.05527344 0.08789062 13.09570312 C0.07951172 12.13599609 0.07113281 11.17628906 0.0625 10.1875 C0.05798828 9.20845703 0.05347656 8.22941406 0.04882812 7.22070312 C0.03708684 4.81373889 0.02066419 2.40690143 0 0 Z " fill="#7F53D3" transform="translate(162,120)"/>
<path d="M0 0 C-3.93795909 1.22419163 -6.16112237 0.48320272 -10 -1 C-10 -1.66 -10 -2.32 -10 -3 C-12.41913128 -2.74424607 -14.83410539 -2.47106619 -17.25 -2.1875 C-17.93191406 -2.11724609 -18.61382812 -2.04699219 -19.31640625 -1.97460938 C-23.40811907 -1.47804229 -25.91632977 -0.73859285 -29 2 C-30.33333333 2.33333333 -31.66666667 2.66666667 -33 3 C-35.2072358 4.48800372 -35.2072358 4.48800372 -37 6 C-37.66 5.67 -38.32 5.34 -39 5 C-27.40269881 -4.53076082 -13.78550413 -8.16918763 0 0 Z " fill="#8252D6" transform="translate(149,104)"/>
<path d="M0 0 C1.32 0.66 2.64 1.32 4 2 C-2.10205966 7.89164381 -9.97849643 10.22988053 -18.3125 10.375 C-22.52041825 10.23272968 -26.10836466 9.72961571 -30 8 C-25.16721439 6.62285092 -20.34788859 7.01627355 -15.375 7.21484375 C-10.40418827 7.31144963 -7.42220075 6.49156443 -3 4 C-2.01 4 -1.02 4 0 4 C0 2.68 0 1.36 0 0 Z " fill="#7D51D4" transform="translate(150,155)"/>
<path d="M0 0 C0.83917969 0.433125 0.83917969 0.433125 1.6953125 0.875 C11.74747564 5.52937779 21.92764099 5.25985458 32.3046875 1.65625 C32.86414063 1.4396875 33.42359375 1.223125 34 1 C34 1.66 34 2.32 34 3 C28.04648507 6.1115078 23.21115854 6.3741794 16.5625 6.1875 C15.64017578 6.17396484 14.71785156 6.16042969 13.76757812 6.14648438 C11.51109617 6.11140953 9.25586774 6.06226387 7 6 C7 5.34 7 4.68 7 4 C4.03 3.505 4.03 3.505 1 3 C0.67 2.01 0.34 1.02 0 0 Z " fill="#FEFACC" transform="translate(50,95)"/>
<path d="M0 0 C0 3.39091621 -0.42341001 3.79168146 -2.375 6.375 C-5.43358651 11.02336029 -5.99463247 15.59469808 -6.640625 21.046875 C-6.93384667 23.45639219 -7.34390796 25.66974207 -8 28 C-8.33 28 -8.66 28 -9 28 C-9.71587323 19.02772217 -8.50915608 11.87915694 -4 4 C-1.828125 1.65625 -1.828125 1.65625 0 0 Z " fill="#7F51D6" transform="translate(109,110)"/>
<path d="M0 0 C0.66 0.33 1.32 0.66 2 1 C-0.51230576 5.74546643 -2.88587846 9.42721025 -7 13 C-7.66 13 -8.32 13 -9 13 C-9 10.69 -9 8.38 -9 6 C-6.03 5.01 -3.06 4.02 0 3 C0 2.01 0 1.02 0 0 Z " fill="#F5CB28" transform="translate(95,80)"/>
<path d="M0 0 C4.15005518 3.81293585 5.75460243 8.30806305 6.2578125 13.828125 C6.34651554 18.56740178 6.24241371 21.78856963 4 26 C3.87882812 24.70964844 3.75765625 23.41929688 3.6328125 22.08984375 C3.46387992 20.37236253 3.29459013 18.65491642 3.125 16.9375 C3.04636719 16.08994141 2.96773438 15.24238281 2.88671875 14.36914062 C2.38350594 9.35636691 1.54885904 4.79625677 0 0 Z " fill="#F2CD3E" transform="translate(94,50)"/>
<path d="M0 0 C2.08326131 -0.02709444 4.16662441 -0.04643873 6.25 -0.0625 C7.41015625 -0.07410156 8.5703125 -0.08570312 9.765625 -0.09765625 C12.40977128 -0.01782092 14.49826091 0.21356222 17 1 C17 1.99 17 2.98 17 4 C17.66 4 18.32 4 19 4 C19 4.66 19 5.32 19 6 C18.38253906 5.80664062 17.76507813 5.61328125 17.12890625 5.4140625 C11.45651132 3.67003849 5.80806965 2.21782106 0 1 C0 0.67 0 0.34 0 0 Z " fill="#DEFBF4" transform="translate(44,100)"/>
<path d="M0 0 C3.49228564 0.59233113 6.40757185 1.53655442 9.625 3 C15.0333874 5.24806464 20.18575549 5.77892606 26 6 C26 6.33 26 6.66 26 7 C15.69750675 7.82298023 8.82198198 6.42891199 0 1 C0 0.67 0 0.34 0 0 Z " fill="#F0D14F" transform="translate(48,93)"/>
<path d="M0 0 C0 0.66 0 1.32 0 2 C-3.46153846 5 -3.46153846 5 -6 5 C-6.33 5.99 -6.66 6.98 -7 8 C-9.0625 8.6875 -9.0625 8.6875 -11 9 C-11 9.66 -11 10.32 -11 11 C-11.66 10.67 -12.32 10.34 -13 10 C-11.92492371 8.70145279 -10.83956264 7.41141639 -9.75 6.125 C-9.14671875 5.40570313 -8.5434375 4.68640625 -7.921875 3.9453125 C-5.51835412 1.51248039 -3.48110654 0 0 0 Z " fill="#F2D552" transform="translate(53,39)"/>
<path d="M0 0 C4.56048012 3.61251516 8.01665146 6.98797445 11 12 C10.67 12.66 10.34 13.32 10 14 C5.18987342 9.44303797 5.18987342 9.44303797 4.0625 6.8125 C2.4135883 3.99965062 0.03058016 3.79058613 -3 3 C-2.01 2.67 -1.02 2.34 0 2 C0 1.34 0 0.68 0 0 Z " fill="#7A47D3" transform="translate(151,106)"/>
<path d="M0 0 C3 1 3 1 4.67578125 3.5703125 C6.17804678 7.4611359 6.34229591 10.77886213 6.1875 14.875 C6.17396484 15.56335938 6.16042969 16.25171875 6.14648438 16.9609375 C6.1114837 18.64097001 6.05768954 20.3205935 6 22 C5.67 22 5.34 22 5 22 C4.96132812 21.00033203 4.96132812 21.00033203 4.921875 19.98046875 C4.47603402 12.7355529 2.78101468 6.68737019 0 0 Z " fill="#FEFACE" transform="translate(95,50)"/>
<path d="M0 0 C5.4611399 0.96891192 5.4611399 0.96891192 8 2 C9.5 4.625 9.5 4.625 10 7 C5.56541027 5.6062718 3.12621626 3.39417765 0 0 Z " fill="#7745D7" transform="translate(110,155)"/>
<path d="M0 0 C0.66 0.66 1.32 1.32 2 2 C0.34908222 6.29238623 -2.73754566 8.8793915 -6 12 C-6.66 11.67 -7.32 11.34 -8 11 C-7.38511719 10.31164062 -7.38511719 10.31164062 -6.7578125 9.609375 C-6.21898437 8.99578125 -5.68015625 8.3821875 -5.125 7.75 C-4.59132812 7.14671875 -4.05765625 6.5434375 -3.5078125 5.921875 C-2.0202513 4.02581254 -0.99677564 2.18709995 0 0 Z " fill="#F2E2FE" transform="translate(162,145)"/>
<path d="M0 0 C6.09781001 -0.22084624 11.21642935 -0.01167675 17 2 C17 2.33 17 2.66 17 3 C10.9981863 3.21824777 5.80766296 2.5056904 0 1 C0 0.67 0 0.34 0 0 Z " fill="#E05D73" transform="translate(147,97)"/>
<path d="M0 0 C4.62 0.99 9.24 1.98 14 3 C14 3.33 14 3.66 14 4 C9.71 3.67 5.42 3.34 1 3 C0.67 2.01 0.34 1.02 0 0 Z " fill="#FEDCE9" transform="translate(142,96)"/>
<path d="M0 0 C4.875 1.75 4.875 1.75 6 4 C3.69 4.33 1.38 4.66 -1 5 C-1.33 4.34 -1.66 3.68 -2 3 C-1.34 2.67 -0.68 2.34 0 2 C0 1.34 0 0.68 0 0 Z " fill="#F3CE2D" transform="translate(82,39)"/>
<path d="M0 0 C1 2 1 2 0.0625 5.125 C-0.288125 6.07375 -0.63875 7.0225 -1 8 C-2.32 7.01 -3.64 6.02 -5 5 C-3.35 3.35 -1.7 1.7 0 0 Z " fill="#FDF8D2" transform="translate(93,87)"/>
<path d="M0 0 C0.99 0.33 1.98 0.66 3 1 C2.6875 2.875 2.6875 2.875 2 5 C1.01 5.66 0.02 6.32 -1 7 C-1.33 6.34 -1.66 5.68 -2 5 C-1.34 5 -0.68 5 0 5 C0 3.35 0 1.7 0 0 Z " fill="#7642D7" transform="translate(156,148)"/>
</svg>
